<svg width="156" height="717" viewBox="0 0 156 717" fill="none" xmlns="http://www.w3.org/2000/svg">
<g opacity="0.25">
<path d="M91.4145 177.896L91.4145 87.3657L121.758 96.9795L121.758 195.121L155.174 205.135L155.174 10.0545L137.122 42.1006L1.53636 0.440667L1.53636 59.7259L57.6142 76.9507L57.6142 167.481L91.4145 177.896Z" fill="#009FE3"/>
<path d="M155.174 716.27L155.174 657.386L113.692 646.17C125.983 673.809 139.426 697.443 154.406 715.87L155.174 716.27Z" fill="#009FE3"/>
<path d="M119.453 540.416L119.453 542.82L81.4281 551.232C86.8054 571.261 92.5668 590.488 98.7123 608.514L155.174 595.696L155.174 521.99L155.174 496.353L155.174 461.102L137.89 491.146L64.5279 469.114C67.9847 489.944 71.8257 509.973 76.0507 529.2L119.453 540.416Z" fill="#009FE3"/>
<path d="M1.15223 449.486L1.15223 508.371L40.3299 519.186C37.2571 499.959 34.5685 479.93 33.0321 459.501L1.15223 449.486Z" fill="#E30613"/>
<path d="M36.8731 624.939L36.8731 622.536L63.3756 616.527C57.6142 598.902 52.2369 579.674 48.0118 558.844L1.15225 569.259L1.15225 669.403L105.626 701.049C92.1827 685.426 79.8917 662.193 69.5211 633.752L36.8731 624.939Z" fill="#E30613"/>
<path d="M155.174 440.674L155.174 381.79L55.3096 351.346C54.1573 350.945 53.3892 350.545 52.621 350.545C53.7732 370.974 55.3096 391.003 57.2301 410.631L155.174 440.674Z" fill="#009FE3"/>
<path d="M53.3891 278.84L155.174 309.685L155.174 274.434L155.174 250.8L155.174 213.546L136.738 245.192L52.621 219.956C51.4687 239.183 51.0846 258.411 50.7005 278.44C51.8528 278.44 52.621 278.44 53.3891 278.84Z" fill="#009FE3"/>
<path d="M43.7868 217.552C13.0592 209.941 7.41029e-06 220.757 4.02389e-06 301.673C1.91158e-06 352.146 6.91371 382.189 29.5753 398.613C29.1912 389.399 29.1912 380.587 29.1912 371.374C29.1912 316.094 35.3367 261.616 43.7868 217.552Z" fill="#E30613"/>
</g>
</svg>
