<svg width="28" height="28" viewBox="0 0 28 28" fill="none" xmlns="http://www.w3.org/2000/svg">
<path d="M2.33337 14C2.33337 15.2272 2.54391 16.4052 2.93085 17.5M2.93085 17.5H12.8334M2.93085 17.5C4.37228 21.5782 8.2616 24.5 12.8334 24.5C11.0318 24.5 9.54818 20.4166 9.35474 15.1667M15.1827 10.5H25.0851M25.0851 10.5C23.6437 6.42179 19.7544 3.49997 15.1827 3.49997C17.0504 3.49997 18.5764 7.88897 18.6773 13.4167M25.0851 10.5C25.4104 11.4201 25.6109 12.3991 25.6667 13.4167" stroke="#D9D9D9" stroke-width="1.5" stroke-linecap="round" stroke-linejoin="round"/>
<path d="M2.33337 6.18023C2.33337 4.8988 2.33337 4.25809 2.55198 3.7612C2.78382 3.23427 3.18342 2.81074 3.68059 2.56503C4.14942 2.33333 4.75395 2.33333 5.963 2.33333H7.00004C9.19993 2.33333 10.2999 2.33333 10.9833 3.05766C11.6667 3.78198 11.6667 4.94777 11.6667 7.27935V9.91493C11.6667 10.932 11.6667 11.4405 11.3586 11.6152C11.0505 11.79 10.6513 11.5079 9.85289 10.9438L9.73124 10.8578C9.14771 10.4455 8.85595 10.2393 8.52528 10.1332C8.19461 10.0271 7.84396 10.0271 7.14264 10.0271H5.963C4.75395 10.0271 4.14942 10.0271 3.68059 9.79543C3.18342 9.54971 2.78382 9.12619 2.55198 8.59925C2.33337 8.10237 2.33337 7.46166 2.33337 6.18023Z" stroke="#D9D9D9" stroke-width="1.5"/>
<path d="M25.6667 20.1802C25.6667 18.8988 25.6667 18.2581 25.4481 17.7612C25.2163 17.2342 24.8167 16.8107 24.3194 16.565C23.8507 16.3333 23.2461 16.3333 22.0371 16.3333H21C18.8002 16.3333 17.7002 16.3333 17.0168 17.0577C16.3334 17.782 16.3334 18.9477 16.3334 21.2793V23.9149C16.3334 24.932 16.3334 25.4405 16.6415 25.6152C16.9495 25.79 17.3487 25.5079 18.1472 24.9438L18.2689 24.8578C18.8523 24.4455 19.1441 24.2394 19.4747 24.1332C19.8055 24.0272 20.1561 24.0272 20.8575 24.0272H22.0371C23.2461 24.0272 23.8507 24.0272 24.3194 23.7955C24.8167 23.5498 25.2163 23.1263 25.4481 22.5993C25.6667 22.1024 25.6667 21.4617 25.6667 20.1802Z" stroke="#D9D9D9" stroke-width="1.5"/>
</svg>
