<svg width="126" height="42" viewBox="0 0 126 42" fill="none" xmlns="http://www.w3.org/2000/svg">
<path d="M33.3632 12.1508H17.9438L19.5812 6.7525H36.297L38.0026 0.807501H4.77589L10.2341 4.01917L3.13843 28.1408H13.2361L16.1699 18.1642H31.5893L33.3632 12.1508Z" fill="#009FE3"/>
<path d="M125.061 0.807501H115.031L113.121 8.1875C117.829 6.00083 121.854 3.60917 124.993 0.944168L125.061 0.807501Z" fill="#009FE3"/>
<path d="M95.1089 7.1625H95.5183L96.951 13.9275C100.362 12.9708 103.637 11.9458 106.708 10.8525L104.524 0.807501H91.9704H87.6039H81.5999L86.7169 3.8825L82.9644 16.9342C86.5122 16.3192 89.9236 15.6358 93.1985 14.8842L95.1089 7.1625Z" fill="#009FE3"/>
<path d="M79.6213 28.2092H89.6508L91.4929 21.2392C88.218 21.7858 84.8066 22.2642 81.327 22.5375L79.6213 28.2092Z" fill="#E30613"/>
<path d="M109.505 21.8542H109.096L108.072 17.1392C105.07 18.1642 101.795 19.1208 98.2476 19.8725L100.021 28.2092H117.078L122.468 9.6225C119.807 12.0142 115.85 14.2008 111.006 16.0458L109.505 21.8542Z" fill="#E30613"/>
<path d="M78.1205 0.807501H68.091L62.9057 18.5742C62.8375 18.7792 62.7693 18.9158 62.7693 19.0525C66.2489 18.8475 69.6603 18.5742 73.0034 18.2325L78.1205 0.807501Z" fill="#009FE3"/>
<path d="M50.5564 18.9158L55.8099 0.807501H49.8059H45.7805H39.4353L44.8253 4.0875L40.5269 19.0525C43.8019 19.2575 47.0768 19.3258 50.4881 19.3942C50.4881 19.1892 50.4881 19.0525 50.5564 18.9158Z" fill="#009FE3"/>
<path d="M40.1176 20.6242C38.8213 26.0908 40.6634 28.4142 54.4454 28.4142C63.042 28.4142 68.1591 27.1842 70.9564 23.1525C69.3872 23.2208 67.8862 23.2208 66.3169 23.2208C56.9016 23.2208 47.6226 22.1275 40.1176 20.6242Z" fill="#E30613"/>
<path d="M92.1753 40.9875H94.2903L94.7679 39.3475H92.6529L92.1753 40.9875Z" fill="#D9D9D9"/>
<path d="M17.5344 34.0175H13.4407H12.622H10.7799L12.3491 34.9742L10.5752 41.0558H13.1678L13.7137 39.2108H15.6923C16.4428 39.2108 16.6474 39.5525 16.511 40.0992L16.2381 41.0558H18.6943L19.1036 39.6208C19.3083 38.8008 18.7625 38.3908 17.7391 38.3908V38.3225C19.6494 37.9808 19.8541 37.2975 20.1953 36.1358C20.7411 34.3592 19.7859 34.0175 17.5344 34.0175ZM17.5344 36.4775C17.3297 37.2975 17.2615 37.5708 16.1698 37.5708H14.1912L14.7371 35.6575H16.6474C17.5344 35.6575 17.6708 35.7942 17.5344 36.4775Z" fill="#D9D9D9"/>
<path d="M38.8897 34.0175L37.4569 39.4158H37.3887L36.1606 34.0175H32.9539H31.8623H30.293L31.5893 34.8375L29.8154 41.0558H32.3398L33.7726 35.6575H33.9091L35.0689 41.0558H39.4355L41.4823 34.0175H38.8897Z" fill="#D9D9D9"/>
<path d="M45.8488 34.0175H45.1665H43.1879L44.6207 34.8375L40.2542 40.9875H42.915L43.7337 39.7575H47.2134L47.3498 40.9875H49.9424L49.0555 33.9492H45.8488V34.0175ZM44.6889 38.4592L46.7358 35.3842L47.0087 38.4592H44.6889Z" fill="#D9D9D9"/>
<path d="M5.59465 34.0175H4.91237H2.93378L4.36656 34.8375L0 40.9875H2.66087L3.4796 39.8258H6.9592L7.09565 41.0558H9.68829L8.80134 34.0175H5.59465ZM4.43478 38.4592L6.48161 35.3842L6.75452 38.4592H4.43478Z" fill="#D9D9D9"/>
<path d="M22.788 34.0175H21.1506L22.5151 34.8375L20.7412 41.0558H27.7686L28.2462 39.4842H23.7432L24.1526 38.1175H28.2462L28.6556 36.8192H24.5619L24.9031 35.5208H29.2696L29.7472 34.0175H23.8114H22.788Z" fill="#D9D9D9"/>
<path d="M60.8589 38.4592L60.7907 38.6642C60.586 39.4158 60.3813 40.0992 59.2897 40.6458C58.2662 41.1925 57.1746 41.1925 56.083 41.1925C53.4221 41.1925 51.5117 41.1242 52.2622 38.5275L52.808 36.6825C53.4903 34.3592 55.3325 34.0175 58.1298 34.0175C60.7907 34.0175 61.9505 34.2225 61.4047 36.3408L61.3365 36.6142H58.6756L58.7438 36.3408C58.8803 35.7258 58.2662 35.6575 57.3793 35.6575C55.8783 35.6575 55.6736 35.9992 55.4007 36.9558L55.0596 38.0492C54.7184 39.0742 54.7184 39.4842 56.2194 39.4842C57.3111 39.4842 57.7886 39.4158 58.0616 38.5958L58.1298 38.3908H60.8589V38.4592Z" fill="#D9D9D9"/>
<path d="M70.3424 41.0558H67.7498L68.5685 38.3225H65.2253L64.4066 41.0558H61.814L63.6561 34.8375L62.2233 34.0175H66.4534L65.7029 36.6825H69.0461L69.7966 34.0175H72.3892L70.3424 41.0558Z" fill="#D9D9D9"/>
<path d="M82.7598 34.0175H89.5144C91.4247 34.0175 92.5164 34.2908 92.0388 35.7942C91.7659 36.6825 91.3565 37.2292 90.0602 37.4342V37.5025C91.493 37.5708 91.5612 38.1858 91.2883 39.0742C90.8107 40.7825 89.5826 41.0558 87.5358 41.0558H82.4187L84.2608 34.9058L82.7598 34.0175ZM85.4207 39.4842H87.3993C88.218 39.4842 88.6274 39.3475 88.7638 38.8008C88.9003 38.2542 88.6274 38.1175 87.8087 38.1175H85.8301L85.4207 39.4842ZM86.1712 36.8192H88.0134C88.9003 36.8192 89.1732 36.6825 89.3097 36.1358C89.4461 35.7258 89.3779 35.5892 88.6956 35.5208H86.5123L86.1712 36.8192Z" fill="#D9D9D9"/>
<path d="M74.9819 34.0175H73.3444L74.709 34.8375L72.9351 41.0558H79.9625L80.4401 39.4842H75.9371L76.3464 38.1175H80.4401L80.8494 36.8192H76.6876L77.0969 35.5208H81.4635L81.9411 34.0175H76.0053H74.9819Z" fill="#D9D9D9"/>
<path d="M104.866 38.3908L104.797 38.5958C104.593 39.3475 104.388 40.0308 103.296 40.5775C102.273 41.1242 101.181 41.0558 100.09 41.0558C97.497 41.0558 95.5867 40.9875 96.3372 38.3908L96.883 36.6142C97.5653 34.2908 99.4074 33.9492 102.205 33.9492C104.866 33.9492 106.025 34.1542 105.48 36.2725L105.411 36.5458H102.751L102.819 36.2725C102.955 35.6575 102.341 35.5892 101.454 35.5892C100.021 35.5892 99.7485 35.9308 99.4756 36.8875L99.1345 37.9808C98.7933 39.0058 98.7934 39.4158 100.294 39.4158C101.386 39.4158 101.864 39.3475 102.136 38.5275L102.205 38.3225H104.866V38.3908Z" fill="#D9D9D9"/>
<path d="M114.963 35.6575L109.232 39.4158V39.4842H113.871L113.394 41.1242H105.479L105.957 39.5525L111.62 35.7942V35.7258H107.39L107.867 34.0858H115.441L114.963 35.6575Z" fill="#D9D9D9"/>
</svg>
