<svg width="30" height="30" viewBox="0 0 30 30" fill="none" xmlns="http://www.w3.org/2000/svg">
<rect width="30" height="30" rx="15" fill="#E30613"/>
<path d="M12.7898 10.1095L12.4766 9.40486C12.2718 8.94413 12.1694 8.71375 12.0163 8.53745C11.8244 8.31651 11.5743 8.15395 11.2944 8.06833C11.0711 8 10.819 8 10.3148 8C9.57726 8 9.20848 8 8.8989 8.14178C8.53423 8.30879 8.2049 8.67144 8.07368 9.05047C7.96228 9.37222 7.9942 9.70289 8.058 10.3642C8.73726 17.4035 12.5965 21.2627 19.6358 21.942C20.2971 22.0058 20.6278 22.0377 20.9495 21.9263C21.3286 21.7951 21.6912 21.4657 21.8583 21.1011C22 20.7915 22 20.4227 22 19.6852C22 19.1809 22 18.9289 21.9317 18.7056C21.8461 18.4257 21.6835 18.1756 21.4626 17.9837C21.2863 17.8306 21.0559 17.7282 20.5952 17.5234L19.8905 17.2102C19.3916 16.9885 19.142 16.8776 18.8886 16.8535C18.6459 16.8304 18.4013 16.8645 18.1742 16.9529C17.9369 17.0453 17.7272 17.2201 17.3077 17.5696C16.8901 17.9176 16.6814 18.0916 16.4263 18.1848C16.2001 18.2674 15.9011 18.298 15.663 18.2628C15.3942 18.2233 15.1885 18.1134 14.777 17.8934C13.4968 17.2093 12.7908 16.5033 12.1066 15.223C11.8867 14.8115 11.7767 14.6057 11.7371 14.3371C11.702 14.0989 11.7326 13.7999 11.8152 13.5738C11.9084 13.3187 12.0824 13.1099 12.4304 12.6923C12.7799 12.2729 12.9547 12.0631 13.0471 11.8258C13.1356 11.5987 13.1696 11.3541 13.1465 11.1115C13.1224 10.858 13.0115 10.6085 12.7898 10.1095Z" stroke="white" stroke-width="2" stroke-linecap="round"/>
</svg>
